<?xml version="1.0" encoding="utf-8"?>
<!-- Generator: Adobe Illustrator 22.1.0, SVG Export Plug-In . SVG Version: 6.00 Build 0)  -->
<svg version="1.1" id="Layer_1" xmlns="http://www.w3.org/2000/svg" xmlns:xlink="http://www.w3.org/1999/xlink" x="0px" y="0px"
	 viewBox="0 0 360 280" style="enable-background:new 0 0 360 280;" xml:space="preserve">
<style type="text/css">
	.st0{fill:#63C1BF;}
	.st1{opacity:0.7;clip-path:url(#SVGID_2_);}
	.st2{fill:#4DA09C;}
	.st3{clip-path:url(#SVGID_2_);}
	.st4{fill:#FFFFFF;}
	.st5{clip-path:url(#SVGID_4_);}
	.st6{fill:none;stroke:#FFFFFF;stroke-width:1.575;stroke-miterlimit:10;}
	.st7{fill:none;stroke:#000000;stroke-width:2.3232;stroke-miterlimit:10;}
	.st8{fill:none;stroke:#000000;stroke-width:5.9063;stroke-miterlimit:10;}
	.st9{fill:none;}
	.st10{fill:#EFC65E;}
	.st11{opacity:0.5;clip-path:url(#SVGID_6_);}
	.st12{clip-path:url(#SVGID_6_);}
	.st13{fill:#B8870D;}
	.st14{fill:#111111;}
	.st15{fill:none;stroke:#FFFFFF;stroke-width:1.9056;stroke-miterlimit:10;}
	.st16{opacity:0.8;fill:#2E7DC0;}
	.st17{clip-path:url(#SVGID_8_);}
	.st18{stroke:#000000;stroke-width:1.4203;stroke-miterlimit:10;}
	.st19{stroke:#000000;stroke-width:1.8451;stroke-miterlimit:10;}
	.st20{stroke:#000000;stroke-width:1.6423;stroke-miterlimit:10;}
	.st21{fill:none;stroke:#000000;stroke-width:2.4;stroke-miterlimit:10;}
	.st22{fill:#91C5EC;stroke:#000000;stroke-width:2.527;stroke-miterlimit:10;}
	.st23{fill:none;stroke:#000000;stroke-width:5.054;stroke-miterlimit:10;}
	.st24{fill:#BBBBBB;}
	.st25{opacity:0.7;clip-path:url(#SVGID_10_);}
	.st26{fill:#936807;}
	.st27{clip-path:url(#SVGID_10_);}
	.st28{clip-path:url(#SVGID_12_);}
	.st29{stroke:#000000;stroke-width:3.932;stroke-miterlimit:10;}
	.st30{stroke:#000000;stroke-width:0.5898;stroke-miterlimit:10;}
	.st31{opacity:0.8;}
	.st32{fill:#2E7DC0;}
	.st33{clip-path:url(#SVGID_14_);}
	.st34{fill:#216FAA;}
	.st35{stroke:#000000;stroke-width:2.2752;stroke-miterlimit:10;}
	.st36{stroke:#000000;stroke-width:3.4211;stroke-miterlimit:10;}
	.st37{stroke:#000000;stroke-width:3.045;stroke-miterlimit:10;}
	.st38{fill:none;stroke:#000000;stroke-width:3.654;stroke-miterlimit:10;}
	.st39{fill:none;stroke:#000000;stroke-width:4.4498;stroke-miterlimit:10;}
	.st40{fill:#91C5EC;stroke:#000000;stroke-width:4.6695;stroke-miterlimit:10;}
	.st41{fill:none;stroke:#000000;stroke-width:9.3389;stroke-miterlimit:10;}
	.st42{fill:none;stroke:#000000;stroke-width:4.6695;stroke-miterlimit:10;}
	.st43{opacity:0.9;}
	.st44{fill:#BA325D;}
	.st45{clip-path:url(#SVGID_18_);}
	.st46{fill:#6D052D;stroke:#6D052D;stroke-width:6.3651;stroke-miterlimit:10;}
	.st47{stroke:#000000;stroke-width:0.9548;stroke-miterlimit:10;}
	.st48{clip-path:url(#SVGID_20_);}
	.st49{fill:none;stroke:#FFFFFF;stroke-width:2;stroke-miterlimit:10;}
	.st50{fill:none;stroke:#000000;stroke-width:3;stroke-miterlimit:10;}
	.st51{fill:none;stroke:#000000;stroke-width:4.8;stroke-miterlimit:10;}
	.st52{fill:#90B360;}
	.st53{opacity:0.3;clip-path:url(#SVGID_22_);fill:#FFFFFF;}
	.st54{clip-path:url(#SVGID_22_);fill:none;}
	.st55{opacity:0.3;clip-path:url(#SVGID_24_);fill:#FFFFFF;}
	.st56{clip-path:url(#SVGID_24_);fill:none;}
</style>
<g>
	<g>
		<defs>
			<path id="SVGID_1_" d="M436.3,0C417.2,28.6,406,63,406,100c0,99.4,80.6,180,180,180s180-80.6,180-180c0-37-11.2-71.4-30.3-100
				H436.3z"/>
		</defs>
		<clipPath id="SVGID_2_">
			<use xlink:href="#SVGID_1_"  style="overflow:visible;"/>
		</clipPath>
		<g class="st1">
			<path class="st2" d="M649.4-40.4c-4,1-307,189.3-307,189.3l15-199.3L649.4-40.4z"/>
		</g>
	</g>
</g>
<g>
	<g>
		<defs>
			<circle id="SVGID_13_" cx="180" cy="-231" r="180"/>
		</defs>
		<clipPath id="SVGID_4_">
			<use xlink:href="#SVGID_13_"  style="overflow:visible;"/>
		</clipPath>
		<g class="st5">
			<g>
				<polyline class="st37" points="-26,-2.4 -26,75.6 256.9,75.6 256.9,-2.4 				"/>
				<path class="st37" d="M-34.9,9.3V-15c0-20,67-36.3,149.7-36.3S264.4-35.1,264.4-15V9.3"/>
				<path class="st37" d="M256.9,20.7c4.8-3.6,7.5-7.4,7.5-11.3c0-20-67-36.3-149.7-36.3S-34.9-10.7-34.9,9.3c0,4.4,3.2,8.5,9,12.4"
					/>
				<g>
					<path class="st4" d="M221.6,76h-70.7V-27h3.5c25.9,1.7,49,5.1,67.3,9.6V76z"/>
				</g>
			</g>
			<g>
				<g>
					<path class="st4" d="M211.3,76V13.6c0-5-4.1-9.1-9.1-9.1h0c-5,0-9.1,4.1-9.1,9.1V76"/>
					<path d="M205.1,5.1c-3.6,1.2-6.2,4.6-6.2,8.5V76h12.3V13.6C211.3,9.7,208.7,6.3,205.1,5.1z"/>
				</g>
				<g>
					<path class="st4" d="M174,76V7.5c0-5-4.1-9.1-9.1-9.1h0c-5,0-9.1,4.1-9.1,9.1V76"/>
					<path d="M167.9-1.1c-3.6,1.2-6.2,4.6-6.2,8.5V76H174V7.5C174,3.5,171.4,0.1,167.9-1.1z"/>
				</g>
				<g>
					<path class="st4" d="M245.3,76.8V22.8c0-5-4.1-9.1-9.1-9.1h0c-5,0-9.1,4.1-9.1,9.1v53.9"/>
					<path d="M239.2,14.3c-3.6,1.2-6.2,4.6-6.2,8.5v53.9h12.3V22.8C245.3,18.9,242.8,15.5,239.2,14.3z"/>
				</g>
				<g>
					<path class="st4" d="M125.8,76V7.5c0-5-4.1-9.1-9.1-9.1h0c-5,0-9.1,4.1-9.1,9.1V76"/>
					<path d="M119.6-1.1c-3.6,1.2-6.2,4.6-6.2,8.5V76h12.3V7.5C125.8,3.5,123.2,0.1,119.6-1.1z"/>
				</g>
			</g>
		</g>
	</g>
</g>
<g>
	<g class="st43">
		<path class="st44" d="M30.3,0C11.2,28.6,0,63,0,100c0,99.4,80.6,180,180,180s180-80.6,180-180c0-37-11.2-71.4-30.3-100H30.3z"/>
	</g>
	<g>
		<defs>
			<circle id="SVGID_17_" cx="180" cy="100" r="180"/>
		</defs>
		<clipPath id="SVGID_6_">
			<use xlink:href="#SVGID_17_"  style="overflow:visible;opacity:0.8;"/>
		</clipPath>
		<g class="st12">
			<path class="st46" d="M28.4,61L359.7-9.4c5.6,6.3,9.3,14,13.4,12.3c3.6-1.5,4.7-9.1,5.5-16.4l12-2.6c5.1,8.9,10.6,19.8,13,19.1
				c1.7-0.5,1.8-6.5-0.8-21.7l14.3-3l16.9,79.4c-10.4,9.3-7.7,15.3-6.9,19.6c1.1,5.8,7.5,6.5,11.6,19.3c2.8,9,0.8,9.3,3.1,14.5
				c1.4,3.2,3.2,5.6,5.3,7.7l6.7,31.6c-5.9,3.3-11.3,5.9-10.1,8.2c1,2,6.3,2.5,12.4,2.7l2.3,10.8c-9,3.9-17.9,7.7-17.4,9.1
				c0.3,1.1,5.8,0.8,19-1.5l6.1,28.7v0c2.3,10.8-4.6,21.3-15.3,23.6l-349.7,74.3c-10.7,2.3-21.3-4.6-23.6-15.3l-17.2-77.5
				C72.2,211,81,204.6,79,196.6c-1.7-7.2-10.1-9.5-24-7.1L28.4,61z"/>
			<path class="st4" d="M454.2,65.8l-16.9-79.6l-11.6,2.5c-0.4,7-7.9,14.5-12,15.2c-4.3,0.7-7.2-5.4-9.7-10.6l-9.9,2.1
				c-1.5,8.9-2,21.4-5.7,22.2c-3.8,0.8-8.5-11.1-12.9-18.3l-9,1.9c-1,5.4-1.5,11.8-2.9,12.1c-1.2,0.2-5.2-3.6-9.6-9.5L163,44.5
				c0,0,2.1,10-8.9,12.3c-23.3,4.9-18.4,15.2-31.6,18c-12.1,2.5-20.4-9.9-22.3-16.9l-36.9,7.9l33.6,157.9c6.5,0.5,11.8,1.5,13.1,6.9
				c0.9,4.1-4,8.4-9.3,10.8l2.2,10.4c9.8-2.4,17.8-3.3,18.8,1.2c0.7,3-3.6,8.2-16.2,11.3l4.4,20.9l0,0l0,0
				c2.2,10.3-4.4,64.3-14.7,66.5l373.9-123.3c10.3-2.2,16.9-12.3,14.7-22.6L461.4,99.5c-13.6,0.1-31.1,1.1-31.7-2
				c-0.6-3.1,16.3-8.6,28.5-13.4l-2-9.4c-8.3-0.2-17.3,0-17.5-1.1C438.4,72.7,446.5,69.4,454.2,65.8z"/>
			<g>
				<g>
					<path d="M264.3,141.5l-17.6-9.2l-8.2,15.3l-18.3-9.5l-4.9-20.7l-3,0.7c-2.6,0.6-3.5,2.5-3.5,4.7l-1.1,0.2
						c-0.4-0.8-1.1-2.2-1.5-3.9c-0.6-2.7-1.2-10.2,6.5-12l-3.8-16c-1.5-6.2-5.7-5.6-6.9-10.9c-1.4-6,3-12.9,12.5-19.1l1.1,0.6
						c-3.1,2.5-5.4,5.3-4.4,9.8c1.6,7,8,3.6,10.6,14.5l1,4.2l9.3-15.9l16,9.7l9.2-15.7l14.6,8.8l9.2,39L264.3,141.5z M236.5,92.5
						l-9.1-5.5l-3.7,6.1l8.5,36.2l10.8,5.6l2.4-4.5L236.5,92.5z M260,85.5l-7.3-4.5l-3.5,5.6l8.6,36.5l12.5,6.6l0.1-0.1L260,85.5z"
						/>
				</g>
				<g>
					<path d="M323.3,126.6c-2.3-1.8-5-3.2-7.8-3.3l5.2,21.9l-0.2,0.2l-7.1-4l-9.6,14.2l-0.2-0.1l-6.7-28.4c-3.5,1.7-7,5-9.1,9.5
						l-1-0.3c-1.2-8.3,1.4-15.3,7.7-19.2l-4.9-20.6l-2.2,0.5c-3.1,0.7-4.7,3.3-4.5,5.7l-1.3,0.3c-0.5-0.8-1.3-2-1.9-4.7
						c-1.2-5.2,1.3-9.9,7-11.2l0.6-0.1l-2.7-11.4l-4.6-2.5l-2.3,3.7l-1.8-1L285,61l12.1,6.7l2.4,10.3l2.3-4L299,62l2-0.5l2.4,10
						l9.9-17.1l14.5,8.1l10.8,45.9L323.3,126.6z M302.3,76.1L300,80l14,59.4l3.7,2.1L302.3,76.1z M315.5,70.4l-7.6-4.2l-4.2,7.2
						l9,38.3c5.1-0.5,9.2,0.3,13,2.8l0.1-0.1L315.5,70.4z"/>
				</g>
			</g>
			<g>
				<g>
					<rect x="122.9" y="171.5" transform="matrix(0.9781 -0.2079 0.2079 0.9781 -30.145 62.4315)" width="318.1" height="6.2"/>
					<rect x="124.8" y="182.1" transform="matrix(0.9781 -0.2079 0.2079 0.9781 -32.0173 63.0398)" width="318.1" height="3.4"/>
				</g>
			</g>
			<g>
				<g>
					<g>
						<path class="st47" d="M110.4,132l-0.3-0.6c3.1-1.6,5.4-3.3,6.4-4.3l0.7-0.2l4.8,22.8c0.1,0.3,0.2,0.7,0.7,0.6l2.2-0.4l0.1,0.7
							c-1.4,0.3-3.6,0.7-5,1c-1.5,0.3-3.6,0.8-5.1,1.1l-0.1-0.7l2.3-0.5c0.5-0.1,0.5-0.5,0.4-0.8l-4.2-19.6
							c-0.1-0.5-0.2-0.6-0.7-0.3L110.4,132z"/>
						<path class="st47" d="M136.8,148.7c-4.3,0.9-8.7-1.1-9.5-5.1c-0.9-4,2.9-6.8,4.8-7.7c-2.1,0-5.9-0.8-6.7-4.6
							c-0.7-3.4,2.2-6.8,6-7.6c4-0.8,7.9,1.1,8.6,4.5c0.8,3.7-2.5,6.1-4.3,6.9c2.2,0,6.7,1,7.6,5.1
							C144.2,144.1,140.9,147.8,136.8,148.7z M133.9,125.1c-0.6-0.7-1.4-1-2.3-0.8c-0.9,0.2-1.5,0.8-1.8,1.7c-0.3,1,0,2.9,0.3,4.3
							c0.3,1.5,0.8,3.3,1.5,4.1c0.6,0.8,1.4,1.1,2.3,0.9s1.5-0.8,1.8-1.8c0.4-1.1,0-3-0.3-4.4C135.1,127.8,134.6,125.9,133.9,125.1z
							 M136.8,136.6c-0.7-0.7-1.8-1.1-2.8-0.8c-1,0.2-1.9,0.9-2.2,1.9c-0.4,1.1-0.2,3.4,0.1,4.9c0.4,1.9,1.2,4,1.9,4.8
							c0.7,0.7,1.8,1,2.8,0.7c1-0.2,1.9-0.9,2.2-1.8c0.4-1.1,0.2-3.2-0.2-5.1C138.4,139.6,137.7,137.5,136.8,136.6z"/>
						<path class="st47" d="M146.7,125.1c-0.8,0.2-0.9,0.5-0.9,1.2l0.1,2.4l-0.7,0.1l-0.8-7.3l14.4-3.1l0.2,0.9
							c-3.6,10.1-4.6,13.5-3.8,17.2c0.6,2.7,1.3,3.5,1.7,5.3c0.3,1.4-0.2,2.6-1.8,2.9c-1.5,0.3-2.7-0.2-3.3-2.9
							c-1.2-5.5,2.5-12.3,5.2-19L146.7,125.1z"/>
						<path class="st47" d="M165.3,121.1c-0.8,0.2-0.9,0.5-0.9,1.2l0.1,2.4l-0.7,0.1l-0.8-7.3l14.4-3.1l0.2,0.9
							c-3.6,10.1-4.6,13.5-3.8,17.2c0.6,2.7,1.3,3.5,1.7,5.3c0.3,1.4-0.2,2.6-1.8,2.9s-2.7-0.2-3.3-2.9c-1.2-5.5,2.5-12.3,5.2-19
							L165.3,121.1z"/>
					</g>
				</g>
				<rect x="105.6" y="103.5" transform="matrix(0.9781 -0.2079 0.2079 0.9781 -19.0989 31.5047)" width="69.4" height="6.2"/>
				<rect x="116.8" y="157.5" transform="matrix(0.9781 -0.2079 0.2079 0.9781 -29.7834 34.9763)" width="69.4" height="3.4"/>
			</g>
			<rect x="138.5" y="227.8" transform="matrix(0.9781 -0.2079 0.2079 0.9781 -51.5386 34.8886)" width="3.4" height="69.6"/>
			<rect x="292.2" y="195.2" transform="matrix(0.9781 -0.2079 0.2079 0.9781 -41.3869 66.1321)" width="3.4" height="69.6"/>
			<rect x="212.3" y="212.2" transform="matrix(0.9781 -0.2079 0.2079 0.9781 -46.6683 49.8775)" width="3.4" height="69.6"/>
		</g>
	</g>
</g>
</svg>
