<?xml version="1.0" encoding="UTF-8"?>
<svg width="50px" height="50px" viewBox="0 0 50 50" version="1.1" xmlns="http://www.w3.org/2000/svg" xmlns:xlink="http://www.w3.org/1999/xlink">
    <!-- Generator: Sketch 51.2 (57519) - http://www.bohemiancoding.com/sketch -->
    <title>Oval 2</title>
    <desc>Created with Sketch.</desc>
    <defs></defs>
    <g id="Page-1" stroke="none" stroke-width="1" fill="none" fill-rule="evenodd">
        <g id="RML-Flow" transform="translate(-1352.000000, -787.000000)" fill="#61A125" fill-rule="nonzero">
            <g id="Group-3-Copy" transform="translate(107.000000, 663.000000)">
                <g id="Promo-Copy-8" transform="translate(1110.000000, 0.000000)">
                    <g id="Group-2" transform="translate(34.000000, 27.000000)">
                        <g id="Group" transform="translate(101.000000, 97.000000)">
                            <path d="M25,50 C11.1928813,50 0,38.8071187 0,25 C0,11.1928813 11.1928813,0 25,0 C38.8071187,0 50,11.1928813 50,25 C50,38.8071187 38.8071187,50 25,50 Z M33.6495758,21.1740942 C33.6495758,20.895076 33.5379685,20.6160579 33.3370754,20.4151648 L31.8192165,18.8973058 C31.6183234,18.6964127 31.3393052,18.5848054 31.060287,18.5848054 C30.7812688,18.5848054 30.5022506,18.6964127 30.3013575,18.8973058 L22.9799202,26.2299038 L19.6986663,22.9374892 C19.4977732,22.7365961 19.218755,22.6249888 18.9397368,22.6249888 C18.6607186,22.6249888 18.3817005,22.7365961 18.1808074,22.9374892 L16.6629484,24.4553481 C16.4620553,24.6562412 16.350448,24.9352594 16.350448,25.2142776 C16.350448,25.4932958 16.4620553,25.772314 16.6629484,25.9732071 L22.2209908,31.5312494 C22.4218838,31.7321425 22.700902,31.8437498 22.9799202,31.8437498 C23.2589384,31.8437498 23.5379566,31.7321425 23.7388497,31.5312494 L33.3370754,21.9330237 C33.5379685,21.7321306 33.6495758,21.4531124 33.6495758,21.1740942 Z" id="Oval-2"></path>
                        </g>
                    </g>
                </g>
            </g>
        </g>
    </g>
</svg>